<?xml version="1.0" encoding="utf-8"?>
<!-- Generator: Adobe Illustrator 26.0.1, SVG Export Plug-In . SVG Version: 6.00 Build 0)  -->
<svg version="1.1" id="Layer_1" xmlns="http://www.w3.org/2000/svg" xmlns:xlink="http://www.w3.org/1999/xlink" x="0px" y="0px"
	 viewBox="0 0 595.28 551.49" style="enable-background:new 0 0 595.28 551.49;" xml:space="preserve">
<style type="text/css">
	.st0{fill:#EF3C48;}
</style>
<path class="st0" d="M399.43,131.93L304.97,36.6c-1.58-1.55-3.46-2.8-5.51-3.63c-2.04-0.83-4.25-1.25-6.46-1.25
	c-4.42,0-8.68,1.75-11.81,4.88L42.08,274.92c-3.17,3.13-4.92,7.43-4.92,11.89c0,4.42,1.75,8.71,4.92,11.84l95.29,95.33
	c1.58,1.54,3.46,2.79,5.5,3.62c2.05,0.84,4.26,1.3,6.47,1.26c4.42,0,8.63-1.75,11.8-4.88l47.67-47.67l142.96-143l47.67-47.67
	c3.16-3.13,4.92-7.42,4.92-11.84C404.35,139.35,402.59,135.1,399.43,131.93L399.43,131.93z M339.84,167.62l-11.98-11.97
	c-3.16-3.13-7.42-4.88-11.88-4.88c-4.42,0-8.71,1.75-11.88,4.88c-1.55,1.59-2.8,3.47-3.67,5.51c-0.83,2.04-1.29,4.25-1.29,6.46
	c0,2.25,0.46,4.43,1.29,6.51c0.88,2.04,2.13,3.88,3.67,5.47l11.97,11.97l-23.89,23.72l-35.7-35.69c-3.26-2.75-7.38-4.22-11.64-4.05
	c-4.21,0.16-8.25,1.91-11.26,4.92c-3,3-4.75,7-4.91,11.25c-0.17,4.26,1.29,8.38,4.03,11.59l35.7,35.7l-23.89,23.94l-11.81-11.97
	c-3.16-3.17-7.46-4.96-11.97-4.96c-4.46,0-8.75,1.79-11.92,4.96s-4.97,7.46-4.97,11.97c0,4.51,1.79,8.8,4.97,11.97l11.92,11.76
	L197,310.62l-35.87-35.7c-3.17-3.13-7.42-4.92-11.88-4.92c-4.46,0-8.71,1.79-11.88,4.92c-3.13,3.13-4.88,7.43-4.88,11.89
	c0,4.42,1.75,8.71,4.88,11.84l35.69,35.7l-23.72,23.93l-71.56-71.6L292.17,72.3l71.56,71.6L339.84,167.62z M339.84,167.62"/>
<path class="st0" d="M222.4,520.13h303.17c4.46,0,8.75-1.79,11.92-4.92c3.13-3.17,4.92-7.46,4.92-11.92V200.15
	c0-4.46-1.79-8.75-4.92-11.92c-3.17-3.17-7.46-4.92-11.92-4.92H424.52c-4.46,0-8.75,1.75-11.92,4.92
	c-3.13,3.17-4.92,7.46-4.92,11.92v185.25H222.4c-4.46,0-8.72,1.79-11.89,4.92c-3.17,3.17-4.92,7.46-4.92,11.92v101.05
	c0,4.46,1.75,8.75,4.92,11.92C213.68,518.34,217.94,520.13,222.4,520.13L222.4,520.13z M239.25,419.09h33.69v16.85
	c0,4.46,1.79,8.76,4.92,11.89c3.17,3.16,7.46,4.95,11.92,4.95c4.46,0,8.75-1.79,11.88-4.95c3.17-3.13,4.96-7.43,4.96-11.89v-16.85
	h33.69v16.85c0,4.46,1.75,8.76,4.92,11.89c3.17,3.16,7.43,4.95,11.89,4.95c4.46,0,8.75-1.79,11.92-4.95
	c3.17-3.13,4.92-7.43,4.92-11.89v-16.85h33.69v16.85c0,4.46,1.79,8.76,4.92,11.89c3.17,3.16,7.46,4.95,11.92,4.95
	c4.46,0,8.75-1.79,11.88-4.95c3.17-3.13,4.96-7.43,4.96-11.89v-16.85h16.85c4.46,0,8.72-1.79,11.89-4.96
	c3.17-3.13,4.92-7.42,4.92-11.88c0-4.46-1.75-8.75-4.92-11.92c-3.17-3.13-7.43-4.92-11.89-4.92h-16.85V351.7h16.85
	c4.46,0,8.72-1.75,11.89-4.92c3.17-3.17,4.92-7.43,4.92-11.89c0-4.49-1.75-8.75-4.92-11.93c-3.17-3.17-7.43-4.92-11.89-4.92h-16.85
	v-33.69h16.85c4.46,0,8.72-1.79,11.89-4.92c3.17-3.17,4.92-7.46,4.92-11.93s-1.75-8.75-4.92-11.88c-3.17-3.17-7.43-4.96-11.89-4.96
	h-16.85v-33.69h67.35v269.48H239.25V419.09z M239.25,419.09"/>
</svg>
