<?xml version="1.0" encoding="utf-8"?>
<!-- Generator: Adobe Illustrator 26.0.1, SVG Export Plug-In . SVG Version: 6.00 Build 0)  -->
<svg version="1.1" id="Layer_1" xmlns="http://www.w3.org/2000/svg" xmlns:xlink="http://www.w3.org/1999/xlink" x="0px" y="0px"
	 viewBox="0 0 230.81 200.17" style="enable-background:new 0 0 230.81 200.17;" xml:space="preserve">
<style type="text/css">
	.st0{fill:#FFFFFF;}
</style>
<path class="st0" d="M124.32,117.86H88.64c-2.37,0-4.63,0.94-6.31,2.6c-1.67,1.67-2.61,3.93-2.61,6.28c0,2.36,0.94,4.62,2.61,6.28
	c1.67,1.67,3.94,2.6,6.31,2.6h35.69c2.37,0,4.64-0.94,6.31-2.6c1.67-1.67,2.61-3.93,2.61-6.28c0-2.36-0.94-4.62-2.61-6.28
	C128.96,118.79,126.69,117.86,124.32,117.86z M160.01,29h-10.53c-1.84-5.19-5.25-9.67-9.75-12.86c-4.51-3.18-9.89-4.9-15.41-4.91
	h-17.84c-5.52,0.01-10.9,1.73-15.41,4.91c-4.5,3.18-7.91,7.67-9.75,12.86H70.8c-7.1,0-13.91,2.81-18.93,7.81
	c-5.02,5-7.84,11.78-7.84,18.85v106.62c0,7.07,2.82,13.85,7.84,18.85c5.02,5,11.83,7.81,18.93,7.81h89.21
	c7.1,0,13.91-2.81,18.93-7.81c5.02-5,7.84-11.78,7.84-18.85V55.66c0-7.07-2.82-13.85-7.84-18.85C173.92,31.81,167.11,29,160.01,29
	L160.01,29z M97.56,37.89c0-2.36,0.94-4.62,2.61-6.28c1.67-1.67,3.94-2.6,6.31-2.6h17.84c2.37,0,4.64,0.94,6.31,2.6
	c1.67,1.67,2.61,3.93,2.61,6.28v8.89H97.56V37.89z M168.93,162.28c0,2.36-0.94,4.62-2.61,6.28c-1.67,1.67-3.94,2.6-6.31,2.6H70.8
	c-2.37,0-4.64-0.94-6.31-2.6c-1.67-1.67-2.61-3.93-2.61-6.28V55.66c0-2.36,0.94-4.62,2.61-6.28c1.67-1.67,3.94-2.6,6.31-2.6h8.92
	v8.89c0,2.36,0.94,4.62,2.61,6.28c1.67,1.67,3.94,2.6,6.31,2.6h53.53c2.37,0,4.63-0.94,6.31-2.6c1.67-1.67,2.61-3.93,2.61-6.28
	v-8.89h8.92c2.37,0,4.64,0.94,6.31,2.6c1.67,1.67,2.61,3.93,2.61,6.28V162.28z M142.17,82.31H88.64c-2.37,0-4.63,0.94-6.31,2.6
	c-1.67,1.67-2.61,3.93-2.61,6.28c0,2.36,0.94,4.62,2.61,6.28c1.67,1.67,3.94,2.6,6.31,2.6h53.53c2.37,0,4.63-0.94,6.31-2.6
	c1.67-1.67,2.61-3.93,2.61-6.28c0-2.36-0.94-4.62-2.61-6.28C146.81,83.25,144.54,82.31,142.17,82.31z"/>
</svg>
