<?xml version="1.0" encoding="utf-8"?>
<!-- Generator: Adobe Illustrator 26.0.1, SVG Export Plug-In . SVG Version: 6.00 Build 0)  -->
<svg version="1.1" id="Layer_1" xmlns="http://www.w3.org/2000/svg" xmlns:xlink="http://www.w3.org/1999/xlink" x="0px" y="0px"
	 viewBox="0 0 230.81 200.17" style="enable-background:new 0 0 230.81 200.17;" xml:space="preserve">
<style type="text/css">
	.st0{fill:#EF3C48;}
</style>
<path class="st0" d="M157.56,117.31c-0.33,0.36-0.63,0.74-0.87,1.16c-0.29,0.37-0.51,0.78-0.65,1.22c-0.23,0.43-0.37,0.89-0.43,1.36
	c-0.29,1.39-0.14,2.81,0.43,4.12c0.32,0.89,0.84,1.69,1.52,2.37c0.68,0.68,1.49,1.19,2.38,1.52c0.85,0.39,1.8,0.6,2.75,0.57
	c0.93,0.01,1.87-0.17,2.74-0.51c0.86-0.41,1.67-0.94,2.38-1.58c0.68-0.68,1.2-1.46,1.57-2.34c0.36-0.88,0.53-1.82,0.53-2.77
	c0.03-0.94-0.18-1.89-0.59-2.74c-0.36-0.88-0.87-1.68-1.52-2.38c-0.68-0.66-1.46-1.19-2.35-1.56c-0.89-0.36-1.83-0.53-2.78-0.53
	c-0.96,0.01-1.89,0.22-2.75,0.59C159.05,116.14,158.24,116.66,157.56,117.31L157.56,117.31z M127.78,147.28
	c-0.29,0.37-0.51,0.78-0.65,1.22c-0.28,0.42-0.47,0.89-0.59,1.38c-0.22,0.92-0.22,1.89,0,2.8l0.43,1.3l0.65,1.3l0.87,1.07
	c1.43,1.35,3.31,2.1,5.29,2.09c0.94,0.01,1.89-0.18,2.76-0.53c0.88-0.36,1.68-0.88,2.36-1.56c0.64-0.7,1.16-1.5,1.52-2.37
	c0.46-1.1,0.62-2.28,0.51-3.45c-0.11-1.17-0.52-2.29-1.17-3.27c-0.66-0.99-1.56-1.79-2.59-2.36c-1.05-0.56-2.22-0.85-3.39-0.85
	c-1.92,0.03-3.75,0.76-5.14,2.09L127.78,147.28z M157.56,146.14c-0.66,0.68-1.17,1.49-1.52,2.37c-0.61,1.31-0.82,2.77-0.59,4.18
	l0.43,1.3c0.17,0.46,0.38,0.89,0.65,1.3c0.27,0.37,0.56,0.74,0.87,1.07c0.69,0.67,1.5,1.17,2.39,1.52c0.87,0.38,1.8,0.57,2.74,0.57
	c0.96,0,1.89-0.19,2.75-0.57c0.88-0.36,1.68-0.88,2.38-1.52c0.7-0.66,1.25-1.45,1.64-2.33c0.38-0.88,0.59-1.82,0.6-2.78
	c0.03-0.94-0.18-1.89-0.59-2.74c-0.36-0.86-0.87-1.67-1.52-2.37c-0.7-0.64-1.5-1.15-2.38-1.52c-0.87-0.38-1.8-0.57-2.74-0.57
	c-0.96,0-1.89,0.19-2.75,0.57C159.05,144.96,158.24,145.47,157.56,146.14L157.56,146.14z M127.13,125.18
	c0.34,0.88,0.85,1.68,1.51,2.37c1.39,1.31,3.21,2.06,5.14,2.09c1.17,0,2.34-0.31,3.39-0.85c1.03-0.56,1.92-1.38,2.59-2.36
	c0.65-0.98,1.06-2.1,1.17-3.27c0.11-1.17-0.05-2.37-0.51-3.45c-0.36-0.88-0.88-1.68-1.52-2.38c-0.68-0.66-1.48-1.19-2.36-1.56
	c-0.88-0.36-1.82-0.53-2.76-0.53c-1.92,0.04-3.75,0.78-5.14,2.09c-1,1.02-1.68,2.31-1.96,3.71
	C126.41,122.41,126.57,123.86,127.13,125.18L127.13,125.18z M157.56,88.51c-0.64,0.7-1.15,1.5-1.52,2.37
	c-0.56,1.32-0.71,2.77-0.43,4.17c0.27,1.39,0.94,2.67,1.95,3.69c0.69,0.65,1.49,1.17,2.38,1.5c0.87,0.38,1.8,0.59,2.75,0.59
	c0.94,0,1.87-0.2,2.74-0.59c0.88-0.36,1.68-0.86,2.38-1.5c0.68-0.68,1.2-1.48,1.57-2.36c0.36-0.87,0.53-1.81,0.53-2.77
	c0.03-0.94-0.18-1.87-0.59-2.74c-0.36-0.86-0.87-1.67-1.52-2.37c-1-1.01-2.31-1.68-3.71-1.95c-1.4-0.27-2.85-0.11-4.17,0.43
	C159.05,87.33,158.24,87.85,157.56,88.51L157.56,88.51z M68.72,93.61v57.63c0,1.91,0.77,3.74,2.12,5.1c1.36,1.35,3.2,2.1,5.11,2.1
	h28.91c1.92,0,3.76-0.75,5.12-2.1c1.35-1.35,2.11-3.19,2.11-5.1V93.61c0-1.91-0.76-3.73-2.11-5.08c-1.36-1.35-3.2-2.12-5.12-2.12
	H75.94c-1.91,0-3.74,0.76-5.11,2.12C69.49,89.88,68.72,91.7,68.72,93.61L68.72,93.61z M97.63,100.83v43.22H83.18v-43.22H97.63z
	 M39.81,79.22v86.44c0,5.73,2.28,11.22,6.34,15.28c4.08,4.05,9.58,6.33,15.34,6.33h115.64c5.76,0,11.26-2.28,15.34-6.33
	c4.06-4.05,6.34-9.54,6.34-15.28V79.22c0-5.73-2.28-11.22-6.34-15.29c-4.08-4.05-9.58-6.32-15.34-6.32H61.49
	c-5.76,0-11.26,2.27-15.34,6.32C42.09,67.99,39.81,73.48,39.81,79.22L39.81,79.22z M177.14,72c1.92,0,3.76,0.76,5.11,2.12
	c1.36,1.35,2.11,3.18,2.11,5.09v86.44c0,1.91-0.75,3.73-2.11,5.09c-1.35,1.35-3.19,2.11-5.11,2.11H61.49
	c-1.92,0-3.76-0.76-5.11-2.11c-1.36-1.35-2.11-3.17-2.11-5.09V79.22c0-1.91,0.75-3.74,2.11-5.09c1.35-1.35,3.19-2.12,5.11-2.12
	H177.14z M127.78,89.65c-0.29,0.37-0.51,0.79-0.65,1.22c-0.23,0.43-0.37,0.91-0.43,1.38c-0.22,0.93-0.22,1.89,0,2.81l0.43,1.3
	l0.65,1.3l0.86,1.08c1.39,1.31,3.21,2.06,5.14,2.09c1.17-0.01,2.34-0.31,3.39-0.87c1.03-0.56,1.92-1.36,2.59-2.34
	c0.65-0.98,1.06-2.1,1.17-3.29c0.11-1.17-0.05-2.36-0.51-3.45c-0.36-0.86-0.88-1.67-1.52-2.37c-0.68-0.66-1.48-1.2-2.36-1.56
	c-0.88-0.36-1.82-0.53-2.76-0.53c-1.92,0.03-3.75,0.78-5.14,2.09L127.78,89.65z M127.78,89.65"/>
<path class="st0" d="M69.39,16.17c-0.38,0.38-0.69,0.85-0.89,1.36c-0.22,0.5-0.32,1.04-0.31,1.59l0.33,24.96
	c0.01,0.55,0.13,1.1,0.36,1.6c0.22,0.51,0.53,0.96,0.93,1.34c0.38,0.38,0.84,0.69,1.35,0.89c0.51,0.21,1.06,0.32,1.6,0.31
	l16.67-0.23l64.34-0.87c0.55-0.01,1.1-0.13,1.59-0.34c0.5-0.23,0.96-0.53,1.34-0.93l12.31-12.65c0.78-0.79,1.2-1.86,1.19-2.97
	c-0.01-1.09-0.47-2.15-1.26-2.92l-12.65-12.32c-0.39-0.42-0.88-0.77-1.42-0.99s-1.11-0.36-1.69-0.35L89,14.69l-16.54,0.05
	c-0.56,0.03-1.1,0.14-1.62,0.35c-0.25,0.22-0.5,0.45-0.7,0.71c-0.14,0.13-0.28,0.27-0.41,0.42L69.39,16.17z M151.71,22.15l8.45,8.22
	l-8.22,8.45l-58.46,0.79l-0.23-16.67L151.71,22.15z M84.94,23.05l0.23,16.67l-8.33,0.08l-0.23-16.6L84.94,23.05z M84.94,23.05"/>
</svg>
